<?xml version="1.0" encoding="utf-8"?>
<!-- Generator: Adobe Illustrator 19.2.1, SVG Export Plug-In . SVG Version: 6.00 Build 0)  -->
<svg version="1.1" id="Слой_1" xmlns="http://www.w3.org/2000/svg" xmlns:xlink="http://www.w3.org/1999/xlink" x="0px" y="0px"
	 width="32px" height="24px" viewBox="0 0 32 24" style="enable-background:new 0 0 32 24;" xml:space="preserve">
<style type="text/css">
	.st0{fill:#00E4FF;}
</style>
<title>Vector</title>
<desc>Created using Figma</desc>
<g id="Canvas" transform="translate(648 392)">
	<g id="Vector">
		<g transform="translate(-647 -391)">
			<path id="path0_stroke" class="st0" d="M-640-388.3l-0.1-0.5l-0.2,0l-0.1,0.1L-640-388.3z M-647-379.5l-0.4-0.3l-0.3,0.3l0.3,0.3
				L-647-379.5z M-627.7-391l0.3-0.4l-0.2-0.1l-0.2,0L-627.7-391z M-642.2-374l-0.4,0.3l0.1,0.2h0.2V-374z M-626.6-369l-0.3,0.4
				l0.2,0.1l0.3-0.1L-626.6-369z M-617-374l0.2,0.4l0.3-0.1v-0.3H-617z M-617-383.9h0.5v-0.3l-0.2-0.1L-617-383.9z M-640.5-388.3
				v8.8h1v-8.8H-640.5z M-640-380h-7v1h7V-380z M-646.6-379.1l7-8.8l-0.8-0.6l-7,8.8L-646.6-379.1z M-627.8-391.5l-12.3,2.8l0.2,1
				l12.3-2.7L-627.8-391.5z M-632.1-383.6l4.8-7.1l-0.8-0.6l-4.8,7.1L-632.1-383.6z M-632.3-384.3l-7.5-4.4l-0.5,0.9l7.5,4.4
				L-632.3-384.3z M-639.8-379l7.5-4.4l-0.5-0.9l-7.5,4.4L-639.8-379z M-640.4-379.1l5.4,5.5l0.7-0.7l-5.4-5.5L-640.4-379.1z
				 M-634.7-374.5h-7.5v1h7.5V-374.5z M-641.8-374.3l-4.8-5.5l-0.8,0.7l4.8,5.5L-641.8-374.3z M-634.9-373.5l8,4.9l0.5-0.9l-8-5
				L-634.9-373.5z M-626.4-368.6l9.6-4.9l-0.5-0.9l-9.6,5L-626.4-368.6z M-617-384.4h-15.5v1h15.5V-384.4z M-616.7-384.3l-10.7-7.1
				l-0.6,0.8l10.7,7.1L-616.7-384.3z M-617.5-383.9v9.9h1v-9.9H-617.5z M-616.7-374.4l-6-3.9l-0.5,0.8l6,3.9L-616.7-374.4z
				 M-622.8-378.2l-9.5-6l-0.5,0.8l9.5,6.1L-622.8-378.2z M-622.7-377.4l6-6.1l-0.7-0.7l-6,6.1L-622.7-377.4z M-640.1-379l17,1.6
				l0.1-1l-17-1.6L-640.1-379z M-634.5-373.5l11.6-3.8l-0.3-0.9l-11.6,3.8L-634.5-373.5z M-623.5-378l-3.6,8.8l0.9,0.4l3.6-8.8
				L-623.5-378z"/>
		</g>
	</g>
</g>
</svg>
