<svg width="60" height="22" viewBox="0 0 60 22" version="1.1" xmlns="http://www.w3.org/2000/svg" xmlns:xlink="http://www.w3.org/1999/xlink">
<title>Vector</title>
<desc>Created using Figma</desc>
<g id="Canvas" transform="translate(607 391)">
<g id="Vector">
<use xlink:href="#path0_fill" transform="translate(-607 -391)" fill="#00E4FF"/>
</g>
</g>
<defs>
<path id="path0_fill" d="M 38.883 4.846C 36.9882 3.815 32.8397 4.303 31.8759 4.554C 30.495 4.913 29.9473 5.647 29.3763 6.657C 28.5993 8.025 28.5277 12.778 29.2592 14.607C 29.6241 15.518 30.1282 16.169 30.8966 16.582C 32.8078 17.609 36.9427 17.153 37.9007 16.876C 39.2362 16.49 39.7558 15.915 40.4032 14.771C 41.1512 13.452 41.2045 8.625 40.5203 6.822C 40.1671 5.892 39.7607 5.324 38.883 4.846ZM 38.0217 12.676C 37.8708 13.625 37.3395 14.01 36.5808 14.346C 36.1483 14.57 33.6874 14.778 32.7903 14.235C 32.2117 13.883 31.8865 13.321 31.7491 12.487C 31.5188 11.061 31.4646 10.141 31.7056 8.641C 31.8507 7.693 32.3713 7.082 33.2229 6.852C 33.8829 6.783 36.1037 6.557 36.906 7.074C 37.4701 7.439 37.8553 7.924 37.9898 8.753C 38.2259 10.176 38.2598 11.18 38.0217 12.676ZM 57.3679 4.444C 56.569 4.27835 55.7556 4.19892 54.9409 4.207C 53.979 4.221 53.0036 4.413 52.2991 4.53C 52.1442 4.572 51.7359 4.644 51.1466 4.742C 50.4672 4.644 49.9998 4.526 49.9302 4.5C 49.1338 4.331 47.8496 4.217 47.2874 4.217C 45.8852 4.217 43.9576 4.539 43.1882 4.702C 42.6473 4.818 42.6618 5.346 42.6618 5.593L 42.6618 16.665C 42.6618 16.776 42.7702 17.003 42.987 17.003L 44.9369 17.003C 45.262 17.003 45.4788 16.776 45.4788 16.442L 45.4788 7.269C 45.4788 7.146 45.561 7.164 45.5872 7.158C 45.7594 7.124 47.3106 6.85 48.7283 7.047C 49.5218 7.156 49.9205 7.719 49.9205 8.389L 49.9205 16.664C 49.9205 16.828 49.9495 17.002 50.2456 17.002L 52.1965 17.002C 52.5207 17.002 52.7374 16.775 52.7374 16.441L 52.7374 7.382C 52.7374 7.252 52.782 7.189 52.9552 7.157C 52.9552 7.157 55.1228 6.822 56.2057 7.046C 57.2556 7.262 57.1782 8.802 57.1782 9.171L 57.1782 16.663C 57.1782 16.774 57.2905 17.001 57.5082 17.001L 59.4562 17.001C 59.7842 17.001 60 16.774 60 16.44L 60 8.925C 59.9971 6.225 59.4958 4.936 57.3679 4.444ZM 9.10021 4.998C 6.97611 3.94 4.11754 4.331 3.3579 4.44C 2.57117 4.551 1.74379 4.706 0.974469 4.886C 0.212893 5.063 0 5.297 0 6.117C 0.00193539 7.26 0 21.507 0 21.664C 0 21.792 0.137413 22 0.325146 22L 2.27602 22C 2.61084 22 2.92437 21.768 2.92437 21.438L 2.92437 17.078C 3.46725 17.189 3.8882 17.261 4.44269 17.301C 4.7001 17.319 6.71774 17.414 8.27766 17.021C 9.48535 16.719 10.3563 16.01 10.8333 14.954C 11.4672 13.552 11.3211 10.661 11.2698 9.583C 11.1943 8.039 10.8537 5.869 9.10021 4.998ZM 8.28928 12.845C 8.12961 13.862 7.58673 14.404 6.60936 14.618C 5.32329 14.9 2.92437 14.631 2.92437 14.392L 2.92437 7.457C 2.92437 7.339 3.08211 7.248 3.14211 7.233C 3.96465 7.111 6.18067 6.826 7.15127 7.347C 7.88671 7.741 8.16348 8.238 8.29799 9.073C 8.5283 10.494 8.5283 11.344 8.28928 12.845ZM 15.5586 4.549L 13.5313 4.549C 13.3881 4.55005 13.251 4.60945 13.1499 4.7143C 13.0488 4.81915 12.9918 4.96099 12.9913 5.109L 12.9913 16.641C 12.9913 16.821 13.1742 16.975 13.3165 16.975L 15.3428 16.975C 15.6834 16.975 15.8847 16.645 15.8847 16.416L 15.8847 4.884C 15.8847 4.707 15.7028 4.549 15.5586 4.549ZM 15.5654 0L 13.5419 0C 13.3984 0.00131446 13.2611 0.0610416 13.1598 0.166238C 13.0585 0.271435 13.0015 0.413627 13.001 0.562L 13.001 2.448C 13.001 2.629 13.1665 2.783 13.3097 2.783L 15.3515 2.783C 15.6921 2.783 15.8925 2.453 15.8925 2.223L 15.8925 0.335C 15.8934 0.158 15.7105 0 15.5654 0ZM 21.8351 7.154C 23.3427 6.524 25.3623 7.139 26.9426 7.347C 27.1419 7.373 27.2696 7.293 27.2696 6.901C 27.2696 6.47 27.2784 5.746 27.2696 5.336C 27.2648 4.89 27.2222 4.653 26.7277 4.553C 25.2975 4.261 23.6756 4.172 22.9005 4.215C 21.2051 4.316 19.3094 4.553 18.4636 6.299C 17.8975 7.466 17.7069 9.227 17.7262 10.806L 17.7301 10.806C 17.7175 12.358 17.9091 13.993 18.4636 15.136C 19.3104 16.884 21.2051 17.119 22.9005 17.217C 23.6747 17.265 25.2975 17.172 26.7277 16.884C 27.2222 16.783 27.2648 16.545 27.2696 16.1C 27.2784 15.689 27.2696 14.963 27.2696 14.535C 27.2696 14.14 27.1419 14.061 26.9426 14.089C 25.3623 14.296 23.3427 14.912 21.8351 14.28C 21.5941 14.179 20.9845 13.661 20.7861 12.842C 20.6297 12.1638 20.5447 11.4701 20.5326 10.773C 20.5519 10.048 20.6274 9.245 20.7861 8.595C 20.9854 7.775 21.5951 7.259 21.8351 7.154Z"/>
</defs>
</svg>
